<svg width="1440" height="768" viewBox="0 0 1440 768" fill="none" xmlns="http://www.w3.org/2000/svg">
<g id="banner-bg">
<rect id="Mask" width="1440" height="768" fill="url(#paint0_radial)"/>
<mask id="mask0" mask-type="alpha" maskUnits="userSpaceOnUse" x="0" y="0" width="1440" height="768">
<rect id="Mask_2" width="1440" height="768" fill="white"/>
</mask>
<g mask="url(#mask0)">
<path id="oval" fill-rule="evenodd" clip-rule="evenodd" d="M1286.5 2669C1917.49 2669 2429 2157.49 2429 1526.5C2429 895.515 1917.49 384 1286.5 384C655.515 384 144 895.515 144 1526.5C144 2157.49 655.515 2669 1286.5 2669Z" fill="white"/>
<path id="oval_2" fill-rule="evenodd" clip-rule="evenodd" d="M1759 689C2316.81 689 2769 236.808 2769 -321C2769 -878.808 2316.81 -1331 1759 -1331C1201.19 -1331 749 -878.808 749 -321C749 236.808 1201.19 689 1759 689Z" fill="url(#paint1_radial)"/>
</g>
</g>
<defs>
<radialGradient id="paint0_radial" cx="0" cy="0" r="1" gradientUnits="userSpaceOnUse" gradientTransform="translate(1440) rotate(142.879) scale(1272.59 1300.55)">
<stop stop-color="#F0F0F0"/>
<stop offset="1" stop-color="white"/>
</radialGradient>
<radialGradient id="paint1_radial" cx="0" cy="0" r="1" gradientUnits="userSpaceOnUse" gradientTransform="translate(1759 -321) rotate(90) scale(1010)">
<stop stop-color="#F0F0F0"/>
<stop offset="1" stop-color="white"/>
</radialGradient>
</defs>
</svg>
