<svg xmlns="http://www.w3.org/2000/svg" viewBox="0 0 1440 320">
  <path fill="#13B423" fill-opacity="0.71" d="M0,128L48,133.3C96,139,192,149,288,176C384,203,480,245,576,261.3C672,277,768,267,864,240C960,213,1056,171,1152,170.7C1248,171,1344,213,1392,234.7L1440,256L1440,320L1392,320C1344,320,1248,320,1152,320C1056,320,960,320,864,320C768,320,672,320,576,320C480,320,384,320,288,320C192,320,96,320,48,320L0,320Z" data-darkreader-inline-fill="" style="--darkreader-inline-fill:#1f6fa3;"></path>
</svg>
