<?xml version="1.0" encoding="iso-8859-1"?>
<!-- Generator: Adobe Illustrator 19.0.0, SVG Export Plug-In . SVG Version: 6.00 Build 0) -->
<svg version="1.1" id="Capa_1" xmlns="http://www.w3.org/2000/svg" xmlns:xlink="http://www.w3.org/1999/xlink" x="0px" y="0px" viewBox="0 0 459.233 459.233" style="enable-background:new 0 0 459.233 459.233;" xml:space="preserve">
	<path style="fill:#D2485E;" d="M233.012,204.8h18.286c2.09,0,4.18,0.522,6.269,1.045c20.898-13.584,45.453-21.42,72.098-21.42
	c26.645,0,52.767,8.359,74.71,23.51c2.09,1.567,4.702,3.135,6.792,5.224V61.127c0-8.882-6.792-15.673-15.673-15.673h-45.453v40.229
	c0,8.882-1.567,10.449-10.449,10.449s-10.449-1.567-10.449-10.449V45.453H82.024v40.229c0,8.882-1.567,10.449-10.449,10.449
	s-10.449-1.567-10.449-10.449V45.453H15.673C6.792,45.453,0,52.245,0,61.127v294.139c0,8.882,6.792,15.673,15.673,15.673h194.351
	c-1.567-3.657-3.135-6.792-4.18-10.449c-5.224-14.106-7.837-29.257-7.837-44.408c0-30.824,10.449-59.037,28.212-81.502" />
	<g>
		<path style="fill:rgb(245, 177, 177);" d="M178.155,143.673h-18.286c-8.882,0-15.673,6.792-15.673,15.673s6.792,15.673,15.673,15.673h18.286
		c8.882,0,15.673-6.792,15.673-15.673S187.037,143.673,178.155,143.673z" />
		<path style="fill:rgb(245, 177, 177);" d="M105.012,143.673H86.727c-8.882,0-15.673,6.792-15.673,15.673s6.792,15.673,15.673,15.673h18.286
		c8.882,0,15.673-6.792,15.673-15.673S113.894,143.673,105.012,143.673z" />
		<path style="fill:rgb(245, 177, 177);" d="M233.012,175.02h18.286c8.882,0,15.673-6.792,15.673-15.673s-6.792-15.673-15.673-15.673h-18.286
		c-8.882,0-15.673,6.792-15.673,15.673S224.131,175.02,233.012,175.02z" />
		<path style="fill:rgb(245, 177, 177);" d="M306.155,175.02h18.286c8.882,0,15.673-6.792,15.673-15.673s-6.792-15.673-15.673-15.673h-18.286
		c-8.882,0-15.673,6.792-15.673,15.673S297.273,175.02,306.155,175.02z" />
		<path style="fill:rgb(245, 177, 177);" d="M178.155,204.8h-18.286c-8.882,0-15.673,6.792-15.673,15.673c0,8.882,6.792,15.673,15.673,15.673
		h18.286c8.882,0,15.673-6.792,15.673-15.673C193.829,211.592,187.037,204.8,178.155,204.8z" />
		<path style="fill:rgb(245, 177, 177);" d="M105.012,204.8H86.727c-8.882,0-15.673,6.792-15.673,15.673c0,8.882,6.792,15.673,15.673,15.673
		h18.286c8.882,0,15.673-6.792,15.673-15.673C120.686,211.592,113.894,204.8,105.012,204.8z" />
		<path style="fill:rgb(245, 177, 177);" d="M233.012,204.8c-8.882,0-15.673,6.792-15.673,15.673c0,6.269,3.657,11.494,8.882,14.106
		c8.882-10.971,19.331-20.898,31.347-28.735c-2.09-1.045-4.18-1.045-6.269-1.045H233.012z" />
		<path style="fill:rgb(245, 177, 177);" d="M178.155,265.404h-18.286c-8.882,0-15.673,6.792-15.673,15.673c0,8.882,6.792,15.673,15.673,15.673
		h18.286c8.882,0,15.673-6.792,15.673-15.673C193.829,272.196,187.037,265.404,178.155,265.404z" />
		<path style="fill:rgb(245, 177, 177);" d="M105.012,265.404H86.727c-8.882,0-15.673,6.792-15.673,15.673c0,8.882,6.792,15.673,15.673,15.673
		h18.286c8.882,0,15.673-6.792,15.673-15.673C120.686,272.196,113.894,265.404,105.012,265.404z" />
	</g>
	<path style="fill:#D4E1F4;" d="M409.078,211.069c-2.09-1.567-4.702-3.657-6.792-5.224c-21.943-15.151-48.065-23.51-74.71-23.51
	s-51.2,7.837-72.098,21.42c-12.016,7.837-22.465,17.763-31.347,28.735c-17.763,22.465-28.212,50.678-28.212,81.502
	c0,15.151,2.612,30.302,7.837,44.408c1.045,3.657,2.612,6.792,4.18,10.449c21.42,46.498,67.918,76.8,119.641,76.8
	c72.62,0,131.657-59.037,131.657-131.657C459.233,273.241,440.424,235.624,409.078,211.069z" />
	<g>
		<path style="fill:#3A2C51;" d="M370.416,307.722h-32.914v-48.588c0-8.882-6.792-15.673-15.673-15.673
		c-8.882,0-15.673,6.792-15.673,15.673v64.261c0,8.882,6.792,15.673,15.673,15.673h48.588c8.882,0,15.673-6.792,15.673-15.673
		S379.298,307.722,370.416,307.722z" />
		<path style="fill:#3A2C51;" d="M339.592,101.355c8.882,0,15.673-6.792,15.673-15.673V45.453V29.257
		c0-8.882-6.792-15.673-15.673-15.673c-8.882,0-15.673,6.792-15.673,15.673v16.196v40.229
		C323.918,94.563,330.71,101.355,339.592,101.355z" />
		<path style="fill:#3A2C51;" d="M71.576,101.355c8.882,0,15.673-6.792,15.673-15.673V45.453V29.257
		c0-8.882-6.792-15.673-15.673-15.673s-15.673,6.792-15.673,15.673v16.196v40.229C55.902,94.563,62.694,101.355,71.576,101.355z" />
	</g>
	<g>
	</g>
	<g>
	</g>
	<g>
	</g>
	<g>
	</g>
	<g>
	</g>
	<g>
	</g>
	<g>
	</g>
	<g>
	</g>
	<g>
	</g>
	<g>
	</g>
	<g>
	</g>
	<g>
	</g>
	<g>
	</g>
	<g>
	</g>
	<g>
	</g>
</svg>
