<svg id="Capa_1" enable-background="new 0 0 512 512" height="512" viewBox="0 0 512 512" width="512" xmlns="http://www.w3.org/2000/svg">
	<g>
		<path d="m15 212v285c0 8.284 6.716 15 15 15h452c8.284 0 15-6.716 15-15v-285c-1.953-1.953-3.047-3.047-5-5h-472c-1.953 1.953-3.047 3.047-5 5z" fill="#eff4fc" />
		<path d="m497 212v285c0 8.28-6.72 15-15 15h-226v-305h236z" fill="#d1dae8" />
		<path d="m497 46c0-8.284-6.716-15-15-15h-452c-8.284 0-15 6.716-15 15v166h482c0-85.678 0-159.083 0-166z" fill="#d84158" />
		<path d="m497 46v166h-241v-181h226c8.28 0 15 6.72 15 15z" fill="#cb2944" />
		<path d="m91 0c-8.284 0-15 6.716-15 15v51c0 8.284 6.716 15 15 15s15-6.716 15-15v-51c0-8.284-6.716-15-15-15z" fill="#eff4fc" />
		<path d="m151 0c-8.284 0-15 6.716-15 15v51c0 8.284 6.716 15 15 15s15-6.716 15-15v-51c0-8.284-6.716-15-15-15z" fill="#eff4fc" />
		<g fill="#d1dae8">
			<path d="m362 0c-8.284 0-15 6.716-15 15v51c0 8.284 6.716 15 15 15s15-6.716 15-15v-51c0-8.284-6.716-15-15-15z" />
			<path d="m422 0c-8.284 0-15 6.716-15 15v51c0 8.284 6.716 15 15 15s15-6.716 15-15v-51c0-8.284-6.716-15-15-15z" />
			<path d="m55 332h41c5.523 0 10 4.477 10 10v40c0 5.523-4.477 10-10 10h-41c-5.523 0-10-4.477-10-10v-40c0-5.523 4.477-10 10-10z" />
			<path d="m146 332h40c5.523 0 10 4.477 10 10v40c0 5.523-4.477 10-10 10h-40c-5.523 0-10-4.477-10-10v-40c0-5.523 4.477-10 10-10z" />
			<path d="m276 302h-40c-5.523 0-10-4.477-10-10v-40c0-5.523 4.477-10 10-10h40c5.523 0 10 4.477 10 10v40c0 5.523-4.477 10-10 10z" />
		</g>
		<path d="m286 252v40c0 5.52-4.48 10-10 10h-20v-60h20c5.52 0 10 4.48 10 10z" fill="#a3b2cc" />
		<path d="m326 242h40c5.523 0 10 4.477 10 10v40c0 5.523-4.477 10-10 10h-40c-5.523 0-10-4.477-10-10v-40c0-5.523 4.477-10 10-10z" fill="#a3b2cc" />
		<path d="m286 342v40c0 5.523-4.477 10-10 10h-40c-5.523 0-10-4.477-10-10v-40c0-5.523 4.477-10 10-10h40c5.523 0 10 4.477 10 10z" fill="#d1dae8" />
		<path d="m286 342v40c0 5.52-4.48 10-10 10h-20v-60h20c5.52 0 10 4.48 10 10z" fill="#a3b2cc" />
		<path d="m186 302h-40c-5.523 0-10-4.477-10-10v-40c0-5.523 4.477-10 10-10h40c5.523 0 10 4.477 10 10v40c0 5.523-4.477 10-10 10z" fill="#d1dae8" />
		<path d="m196 432v40c0 5.523-4.477 10-10 10h-40c-5.523 0-10-4.477-10-10v-40c0-5.523 4.477-10 10-10h40c5.523 0 10 4.477 10 10z" fill="#d1dae8" />
		<path d="m236 422h40c5.523 0 10 4.477 10 10v40c0 5.523-4.477 10-10 10h-40c-5.523 0-10-4.477-10-10v-40c0-5.523 4.477-10 10-10z" fill="#d1dae8" />
		<path d="m286 432v40c0 5.52-4.48 10-10 10h-20v-60h20c5.52 0 10 4.48 10 10z" fill="#a3b2cc" />
		<path d="m326 422h40c5.523 0 10 4.477 10 10v40c0 5.523-4.477 10-10 10h-40c-5.523 0-10-4.477-10-10v-40c0-5.523 4.477-10 10-10z" fill="#a3b2cc" />
		<path d="m316 382v-40c0-5.523 4.477-10 10-10h40c5.523 0 10 4.477 10 10v40c0 5.523-4.477 10-10 10h-40c-5.523 0-10-4.477-10-10z" fill="#a3b2cc" />
		<path d="m416 332h41c5.523 0 10 4.477 10 10v40c0 5.523-4.477 10-10 10h-41c-5.523 0-10-4.477-10-10v-40c0-5.523 4.477-10 10-10z" fill="#a3b2cc" />
		<path d="m457 302h-41c-5.523 0-10-4.477-10-10v-40c0-5.523 4.477-10 10-10h41c5.523 0 10 4.477 10 10v40c0 5.523-4.477 10-10 10z" fill="#a3b2cc" />
		<path d="m106 252v40c0 5.523-4.477 10-10 10h-41c-5.523 0-10-4.477-10-10v-40c0-5.523 4.477-10 10-10h41c5.523 0 10 4.477 10 10z" fill="#d1dae8" />
		<path d="m55 422h41c5.523 0 10 4.477 10 10v40c0 5.523-4.477 10-10 10h-41c-5.523 0-10-4.477-10-10v-40c0-5.523 4.477-10 10-10z" fill="#d1dae8" />
		<path d="m406 472v-40c0-5.523 4.477-10 10-10h41c5.523 0 10 4.477 10 10v40c0 5.523-4.477 10-10 10h-41c-5.523 0-10-4.477-10-10z" fill="#a3b2cc" />
		<path d="m345.5 122h-179c-8.284 0-15 6.716-15 15s6.716 15 15 15h179c8.284 0 15-6.716 15-15s-6.716-15-15-15z" fill="#cb2944" />
		<path d="m360.5 137c0 8.28-6.72 15-15 15h-89.5v-30h89.5c8.28 0 15 6.72 15 15z" fill="#b2243b" />
	</g>
</svg>
