<svg id="Capa_1" enable-background="new 0 0 512 512" height="512" viewBox="0 0 512 512" width="512" xmlns="http://www.w3.org/2000/svg">
	<g>
		<g fill="#918291">
			<path d="m288.249 179.891c-3.933-1.649-8.463.2-10.115 4.134l-56.685 135.068c-1.651 3.935.2 8.463 4.135 10.114.977.41 1.99.604 2.987.604 3.018 0 5.886-1.781 7.128-4.738l56.685-135.068c1.65-3.934-.201-8.462-4.135-10.114z" />
			<path d="m250.495 209.826c0-20.309-14.702-36.832-32.773-36.832s-32.774 16.523-32.774 36.832 14.702 36.831 32.774 36.831c18.071 0 32.773-16.522 32.773-36.831zm-32.773 21.379c-9.55 0-17.321-9.591-17.321-21.379 0-11.789 7.771-21.379 17.321-21.379s17.32 9.591 17.32 21.379-7.769 21.379-17.32 21.379z" />
			<path d="m294.278 265.343c-18.07 0-32.773 16.523-32.773 36.831 0 20.309 14.702 36.832 32.773 36.832s32.774-16.523 32.774-36.832c-.001-20.309-14.703-36.831-32.774-36.831zm0 58.21c-9.55 0-17.32-9.591-17.32-21.379s7.77-21.379 17.32-21.379 17.321 9.591 17.321 21.379c0 11.789-7.771 21.379-17.321 21.379z" />
		</g>
		<g>
			<path d="m499.39 231.358h-90.594c-4.821 0-9.004-3.348-10.044-8.056-5.748-25.816-18.389-48.985-35.758-67.631-2.194-2.38-4.481-4.677-6.851-6.892-18.728-17.668-41.98-30.442-67.539-36.407-4.667-1.082-7.973-5.233-7.973-10.024l.01-90.749c0-6.294 5.583-11.085 11.816-10.199 17.791 2.545 35.006 6.913 51.416 12.918 71.136 25.993 127.507 82.643 153.117 153.962 5.892 16.39 10.157 33.563 12.599 51.313.866 6.212-3.925 11.765-10.199 11.765z" fill="#98d5b9" />
			<path d="m231.358 11.6v90.666c0 4.801-3.317 8.963-8.005 10.034-25.178 5.759-47.893 18.038-66.272 34.975-3.296 3.018-6.449 6.202-9.457 9.519-16.751 18.492-28.835 41.279-34.397 66.488-1.041 4.718-5.223 8.077-10.055 8.077h-90.562c-6.274 0-11.064-5.553-10.199-11.775 2.442-17.75 6.707-34.913 12.599-51.303 25.61-71.32 81.981-127.97 153.116-153.962 16.41-6.006 33.625-10.374 51.416-12.918 6.233-.886 11.816 3.904 11.816 10.199z" fill="#fd9468" />
		</g>
		<g>
			<path d="m509.59 292.407c-2.442 17.75-6.707 34.923-12.599 51.313-25.611 71.32-81.982 127.969-153.116 153.961-16.41 6.006-33.625 10.374-51.416 12.919-6.233.886-11.816-3.904-11.816-10.199l-.01-90.749c0-4.79 3.307-8.942 7.973-10.024 25.559-5.965 48.81-18.739 67.539-36.407 2.369-2.215 4.656-4.512 6.851-6.892 17.369-18.646 30.01-41.815 35.758-67.631 1.041-4.708 5.223-8.056 10.044-8.056h90.594c6.272 0 11.063 5.553 10.198 11.765z" fill="#fe646f" />
			<path d="m231.358 409.734v90.666c0 6.294-5.584 11.085-11.816 10.199-17.791-2.545-35.006-6.913-51.416-12.919-71.135-25.991-127.506-82.641-153.116-153.96-5.893-16.39-10.158-33.563-12.6-51.313-.865-6.212 3.925-11.765 10.199-11.765h90.563c4.842 0 9.014 3.358 10.055 8.077 5.563 25.208 17.647 47.996 34.397 66.488 3.008 3.317 6.161 6.5 9.457 9.519 18.378 16.936 41.094 29.216 66.272 34.975 4.688 1.07 8.005 5.232 8.005 10.033z" fill="#fee45a" />
		</g>
		<g>
			<path d="m496.99 343.72c-25.611 71.32-81.982 127.969-153.116 153.961-1.02-4.337-1.565-8.86-1.565-13.506v-83.136c0-14.392 5.212-27.599 13.835-37.818 2.092-2.483 4.378-4.78 6.851-6.892 10.261-8.736 23.55-14.021 38.045-14.021h83.136c4.397.001 8.683.485 12.814 1.412z" fill="#fd4755" />
			<path d="m484.174 512h-83.13c-15.368 0-27.826-12.458-27.826-27.826v-83.13c0-15.368 12.458-27.826 27.826-27.826h83.13c15.368 0 27.826 12.458 27.826 27.826v83.13c0 15.368-12.458 27.826-27.826 27.826z" fill="#918291" />
			<circle cx="442.609" cy="434.646" fill="#ffcebf" r="33.601" />
			<path d="m401.044 512h83.13c2.647 0 5.204-.377 7.629-1.068-3.408-24.125-24.129-42.685-49.194-42.685s-45.786 18.56-49.194 42.685c2.425.69 4.983 1.068 7.629 1.068z" fill="#8ac9fe" />
		</g>
		<g>
			<path d="m169.691 401.039v83.136c0 4.646-.546 9.169-1.565 13.506-71.135-25.992-127.506-82.642-153.116-153.961 4.131-.927 8.417-1.411 12.815-1.411h83.136c13.856 0 26.61 4.831 36.664 12.898 3.503 2.792 6.676 5.996 9.457 9.519 7.891 9.992 12.609 22.622 12.609 36.313z" fill="#fedf30" />
			<path d="m110.956 512h-83.13c-15.368 0-27.826-12.458-27.826-27.826v-83.13c0-15.368 12.458-27.826 27.826-27.826h83.13c15.368 0 27.826 12.458 27.826 27.826v83.13c0 15.368-12.458 27.826-27.826 27.826z" fill="#918291" />
			<circle cx="69.391" cy="434.646" fill="#ffcebf" r="33.601" />
			<path d="m27.826 512h83.13c2.647 0 5.204-.377 7.629-1.068-3.408-24.125-24.129-42.685-49.194-42.685s-45.786 18.56-49.194 42.685c2.425.69 4.982 1.068 7.629 1.068z" fill="#8ac9fe" />
		</g>
		<g>
			<path d="m496.99 168.28c-4.131.927-8.417 1.411-12.815 1.411h-83.136c-14.495 0-27.784-5.285-38.045-14.021-2.472-2.112-4.759-4.409-6.851-6.892-8.623-10.219-13.835-23.426-13.835-37.818v-83.135c0-4.646.546-9.169 1.565-13.506 71.136 25.992 127.507 82.642 153.117 153.961z" fill="#57be92" />
			<path d="m484.174 138.782h-83.13c-15.368 0-27.826-12.458-27.826-27.826v-83.13c0-15.368 12.458-27.826 27.826-27.826h83.13c15.368 0 27.826 12.458 27.826 27.826v83.13c0 15.368-12.458 27.826-27.826 27.826z" fill="#918291" />
			<circle cx="442.609" cy="61.427" fill="#ffcebf" r="33.601" />
			<path d="m401.044 138.782h83.13c2.647 0 5.204-.377 7.629-1.068-3.408-24.125-24.129-42.685-49.194-42.685s-45.786 18.56-49.194 42.685c2.425.69 4.983 1.068 7.629 1.068z" fill="#8ac9fe" />
		</g>
		<g>
			<path d="m169.691 27.825v83.136c0 13.691-4.718 26.321-12.609 36.314-2.781 3.523-5.954 6.727-9.457 9.519-10.054 8.066-22.808 12.898-36.664 12.898h-83.136c-4.398 0-8.684-.484-12.815-1.411 25.61-71.32 81.981-127.97 153.116-153.962 1.019 4.338 1.565 8.86 1.565 13.506z" fill="#fe7d43" />
			<path d="m110.956 138.782h-83.13c-15.368 0-27.826-12.458-27.826-27.826v-83.13c0-15.368 12.458-27.826 27.826-27.826h83.13c15.368 0 27.826 12.458 27.826 27.826v83.13c0 15.368-12.458 27.826-27.826 27.826z" fill="#918291" />
			<circle cx="69.391" cy="61.427" fill="#ffcebf" r="33.601" />
			<path d="m27.826 138.782h83.13c2.647 0 5.204-.377 7.629-1.068-3.408-24.125-24.129-42.685-49.194-42.685s-45.786 18.56-49.194 42.685c2.425.69 4.982 1.068 7.629 1.068z" fill="#8ac9fe" />
		</g>
	</g>
</svg>
